<?xml version="1.0" encoding="UTF-8"?>
<svg id="Calque_1" xmlns="http://www.w3.org/2000/svg" xmlns:xlink="http://www.w3.org/1999/xlink" version="1.1" viewBox="0 0 1920 1080">
  <!-- Generator: Adobe Illustrator 30.3.0, SVG Export Plug-In . SVG Version: 2.1.3 Build 182)  -->
  <defs>
    <style>
      .st0 {
        fill: #162242;
      }

      .st1 {
        fill: url(#linear-gradient);
      }

      .st2 {
        clip-rule: evenodd;
        fill: none;
      }

      .st3 {
        fill: #f1f3f4;
      }

      .st4 {
        clip-path: url(#clippath);
      }
    </style>
    <clipPath id="clippath">
      <path class="st2" d="M300.78,338.39h136.58c73.33,0,133.32,59.99,133.32,133.32v136.58c0,73.33-59.99,133.32-133.32,133.32h-136.58c-73.33,0-133.32-59.99-133.32-133.32v-136.58c0-73.33,59.99-133.32,133.32-133.32Z"/>
    </clipPath>
    <linearGradient id="linear-gradient" x1="244.32" y1="662.93" x2="504.83" y2="406.22" gradientUnits="userSpaceOnUse">
      <stop offset="0" stop-color="#108eff"/>
      <stop offset=".46" stop-color="#9f32fd"/>
      <stop offset="1" stop-color="#fe646c"/>
    </linearGradient>
  </defs>
  <g>
    <g class="st4">
      <rect class="st1" x="167.46" y="338.39" width="403.22" height="403.22"/>
    </g>
    <g>
      <path class="st0" d="M841.65,564.11c0,27.65-21.94,43.65-63.99,43.65h-82.73v-159.97h78.16c39.99,0,60.56,16.68,60.56,41.59,0,16-8.23,28.34-21.25,35.19,17.82,5.71,29.25,19.42,29.25,39.53ZM731.73,475.67v37.71h36.79c18.05,0,27.88-6.4,27.88-18.97s-9.83-18.74-27.88-18.74h-36.79ZM804.4,560.22c0-13.48-10.28-19.88-29.48-19.88h-43.19v39.53h43.19c19.2,0,29.48-5.94,29.48-19.65Z"/>
      <path class="st0" d="M943.57,482.98v32.91c-2.97-.23-5.26-.46-8-.46-19.65,0-32.68,10.74-32.68,34.28v58.05h-35.65v-122.95h34.05v16.23c8.68-11.88,23.31-18.05,42.28-18.05Z"/>
      <path class="st0" d="M960.48,447.79c0-11.2,8.91-19.88,22.17-19.88s22.17,8.23,22.17,19.2c0,11.88-8.91,20.57-22.17,20.57s-22.17-8.68-22.17-19.88ZM964.82,484.81h35.65v122.95h-35.65v-122.95Z"/>
      <path class="st0" d="M1134.84,580.33v27.42h-109.69v-21.48l62.62-74.04h-61.02v-27.42h106.04v21.48l-62.62,74.04h64.67Z"/>
      <path class="st0" d="M1146.96,546.28c0-37.02,28.57-63.3,67.64-63.3s67.42,26.28,67.42,63.3-28.34,63.3-67.42,63.3-67.64-26.28-67.64-63.3ZM1245.91,546.28c0-21.25-13.48-34.05-31.31-34.05s-31.54,12.8-31.54,34.05,13.71,34.05,31.54,34.05,31.31-12.8,31.31-34.05Z"/>
      <path class="st0" d="M1415.7,565.02h-89.13l-19.2,42.73h-17.6l73.13-159.97h16.68l73.13,159.97h-17.83l-19.2-42.73ZM1409.53,551.31l-38.39-85.93-38.39,85.93h76.78Z"/>
      <path class="st0" d="M1597.6,547.66c0,36.56-25.59,61.24-59.87,61.24-19.2,0-35.65-8.23-45.7-23.77v66.96h-16.23v-164.54h15.54v23.77c9.83-16,26.51-24.68,46.39-24.68,34.28,0,59.87,24.68,59.87,61.02ZM1581.38,547.66c0-27.88-19.42-46.85-44.79-46.85s-44.79,18.97-44.79,46.85,19.2,46.85,44.79,46.85,44.79-18.74,44.79-46.85Z"/>
      <path class="st0" d="M1752.54,547.66c0,36.56-25.59,61.24-59.87,61.24-19.2,0-35.65-8.23-45.7-23.77v66.96h-16.23v-164.54h15.54v23.77c9.83-16,26.51-24.68,46.39-24.68,34.28,0,59.87,24.68,59.87,61.02ZM1736.32,547.66c0-27.88-19.42-46.85-44.79-46.85s-44.79,18.97-44.79,46.85,19.2,46.85,44.79,46.85,44.79-18.74,44.79-46.85Z"/>
    </g>
  </g>
  <path class="st3" d="M377.18,432.73c26.61,0,47.61,4.98,60.73,14.4,10.26,7.37,15.25,17.28,15.25,30.3,0,7.16-1.46,13.66-4.33,19.33-12.64,24.9-9.4,54.55,8.25,75.54,6.15,7.32,9.27,16.85,9.27,28.35,0,15.02-5.24,25.66-16.49,33.47-13.78,9.57-36.31,14.63-65.14,14.63h-91.27c-11.72,0-21.26-9.54-21.26-21.26v-173.5c0-11.72,9.54-21.26,21.26-21.26h83.74M377.18,408.85h-83.74c-24.93,0-45.13,20.21-45.13,45.13v173.5c0,24.93,20.21,45.13,45.13,45.13h91.27c69.33,0,105.51-26.38,105.51-71.97,0-17.72-5.38-32.42-14.87-43.71-11.63-13.84-13.41-33.25-5.23-49.37,4.47-8.8,6.92-18.92,6.92-30.13,0-41.07-33.91-68.58-99.86-68.58h0Z"/>
</svg>