<?xml version="1.0" encoding="UTF-8"?>
<svg id="Calque_1" xmlns="http://www.w3.org/2000/svg" xmlns:xlink="http://www.w3.org/1999/xlink" version="1.1" viewBox="0 0 512 512">
  <!-- Generator: Adobe Illustrator 30.3.0, SVG Export Plug-In . SVG Version: 2.1.3 Build 182)  -->
  <defs>
    <style>
      .st0 {
        fill: url(#linear-gradient);
      }

      .st1 {
        clip-rule: evenodd;
        fill: none;
      }

      .st2 {
        fill: #f1f3f4;
      }

      .st3 {
        clip-path: url(#clippath);
      }
    </style>
    <clipPath id="clippath">
      <path class="st1" d="M187.71,54.39h136.58c73.33,0,133.32,59.99,133.32,133.32v136.58c0,73.33-59.99,133.32-133.32,133.32h-136.58c-73.33,0-133.32-59.99-133.32-133.32v-136.58c0-73.33,59.99-133.32,133.32-133.32Z"/>
    </clipPath>
    <linearGradient id="linear-gradient" x1="131.25" y1="378.93" x2="391.76" y2="122.22" gradientUnits="userSpaceOnUse">
      <stop offset="0" stop-color="#108eff"/>
      <stop offset=".46" stop-color="#9f32fd"/>
      <stop offset="1" stop-color="#fe646c"/>
    </linearGradient>
  </defs>
  <g class="st3">
    <rect class="st0" x="54.39" y="54.39" width="403.22" height="403.22"/>
  </g>
  <path class="st2" d="M264.12,148.73c26.61,0,47.61,4.98,60.73,14.4,10.26,7.37,15.25,17.28,15.25,30.3,0,7.16-1.46,13.66-4.33,19.33-12.64,24.9-9.4,54.55,8.25,75.54,6.15,7.32,9.27,16.85,9.27,28.35,0,15.02-5.24,25.66-16.49,33.47-13.78,9.57-36.31,14.63-65.14,14.63h-91.27c-11.72,0-21.26-9.54-21.26-21.26v-173.5c0-11.72,9.54-21.26,21.26-21.26h83.74M264.12,124.85h-83.74c-24.93,0-45.13,20.21-45.13,45.13v173.5c0,24.93,20.21,45.13,45.13,45.13h91.27c69.33,0,105.51-26.38,105.51-71.97,0-17.72-5.38-32.42-14.87-43.71-11.63-13.84-13.41-33.25-5.23-49.37,4.47-8.8,6.92-18.92,6.92-30.13,0-41.07-33.91-68.58-99.86-68.58h0Z"/>
</svg>