<?xml version="1.0" encoding="utf-8"?>
<!-- Generator: Adobe Illustrator 26.0.2, SVG Export Plug-In . SVG Version: 6.00 Build 0)  -->
<svg version="1.1" id="Calque_1" xmlns="http://www.w3.org/2000/svg" xmlns:xlink="http://www.w3.org/1999/xlink" x="0px" y="0px"
	 viewBox="0 0 1787 1787" style="enable-background:new 0 0 1787 1787;" xml:space="preserve">
<style type="text/css">
	.st0{fill:url(#SVGID_1_);}
	.st1{fill:url(#SVGID_00000147199278638136466590000007833029585065748629_);}
	.st2{fill:url(#SVGID_00000011713332217026851810000014060667012753244319_);}
	.st3{fill:url(#SVGID_00000086694156564215668690000005516595633594613175_);}
	.st4{fill:url(#SVGID_00000049932753648008748960000010822982580640443555_);}
	.st5{fill:url(#SVGID_00000075870508662018614980000005412788727732962184_);}
	.st6{fill:url(#SVGID_00000043435035869760808940000001764235594485192839_);}
	.st7{fill:url(#SVGID_00000160171829782836887610000017057619678987230094_);}
	.st8{fill:url(#SVGID_00000062875893532659705210000003373432676873606324_);}
	.st9{fill:url(#SVGID_00000153690981703749588420000014411730808176586378_);}
	.st10{fill:url(#SVGID_00000169551079928105364020000012371752482856688775_);}
	.st11{fill:url(#SVGID_00000145046316473089917150000013629275261926924429_);}
	.st12{fill:url(#SVGID_00000120538301942908300970000006927498759118346883_);}
	.st13{fill:url(#SVGID_00000064354325328896683850000008847747414159272090_);}
</style>
<linearGradient id="SVGID_1_" gradientUnits="userSpaceOnUse" x1="1471.6001" y1="703.2291" x2="1578.0962" y2="816.9268">
	<stop  offset="0" style="stop-color:#4D2FE5"/>
	<stop  offset="0.53" style="stop-color:#D51FD5"/>
	<stop  offset="1" style="stop-color:#FB767C"/>
</linearGradient>
<path class="st0" d="M1609.9,734.8c-7.1-3.6-14.7-6-22.4-8c-39.8-9.1-80.9-9.9-121.7-9.3c12.3,40,20.5,81.8,24.1,125
	c8.3-3.2,16.6-6.5,24.8-9.9c22.1-9.3,43.9-19.4,64.6-31.4c16.1-9.7,49.2-30,45.9-49.8C1623.6,743.5,1616.6,738.3,1609.9,734.8z"/>
<linearGradient id="SVGID_00000028304677960927925760000011028344925034348210_" gradientUnits="userSpaceOnUse" x1="263.5264" y1="220.9254" x2="1515.1667" y2="1557.2061">
	<stop  offset="0" style="stop-color:#4D2FE5"/>
	<stop  offset="0.53" style="stop-color:#D51FD5"/>
	<stop  offset="1" style="stop-color:#FB767C"/>
</linearGradient>
<path style="fill:url(#SVGID_00000028304677960927925760000011028344925034348210_);" d="M893.5,47.8
	c-467.1,0-845.7,378.6-845.7,845.7s378.6,845.7,845.7,845.7s845.7-378.6,845.7-845.7S1360.6,47.8,893.5,47.8z M1559.3,814.5
	c-22.6,11.4-45.7,22-69,31.8c1.2,15.6,1.8,31.3,1.8,47.2c0,330.6-268,598.6-598.6,598.6c-267.5,0-494.1-175.5-570.7-417.7
	c-83.5,0.8-160-6.9-166.1-37.7c-5.4-31.3,58.7-67.7,139.8-100.7c-1-14-1.5-28.2-1.5-42.5c0-330.6,268-598.6,598.6-598.6
	c268,0,494.9,176.2,571.2,419c25.3,0.4,50.5,1.5,75.7,3.3c23.9,2.7,80.9,8.6,86.4,33.7C1631.3,776.6,1578.5,804,1559.3,814.5z"/>
<linearGradient id="SVGID_00000156583493122195085020000002693320424022486943_" gradientUnits="userSpaceOnUse" x1="211.2157" y1="972.1306" x2="314.2545" y2="1082.1372">
	<stop  offset="0" style="stop-color:#4D2FE5"/>
	<stop  offset="0.53" style="stop-color:#D51FD5"/>
	<stop  offset="1" style="stop-color:#FB767C"/>
</linearGradient>
<path style="fill:url(#SVGID_00000156583493122195085020000002693320424022486943_);" d="M274.1,958.6
	c-23.1,9.6-132.5,56.2-104.2,84.4c5.3,5,12.3,8.3,19.3,10.8c18.6,6.5,38.2,9.3,57.9,11.4c24.6,2.3,49.2,3.4,73.9,3.5
	c-11.7-38.3-19.7-78.3-23.5-119.5C289.7,952.3,281.9,955.4,274.1,958.6z"/>
<linearGradient id="SVGID_00000093143516110319346930000012054188482344026012_" gradientUnits="userSpaceOnUse" x1="1288.6663" y1="704.5732" x2="1457.3948" y2="884.7118">
	<stop  offset="0" style="stop-color:#4D2FE5"/>
	<stop  offset="0.53" style="stop-color:#D51FD5"/>
	<stop  offset="1" style="stop-color:#FB767C"/>
</linearGradient>
<path style="fill:url(#SVGID_00000093143516110319346930000012054188482344026012_);" d="M1489.9,842.5
	c-3.6-43.1-11.8-84.9-24.1-125c-7.2,0.1-14.3,0.3-21.5,0.4c-56.6,1.9-113.1,7-169.4,13.5c21.2,49.8,32.9,104.5,32.9,162.1
	c0,2.5,0,5.1-0.1,7.6C1369.2,884,1430.4,865.6,1489.9,842.5z"/>
<linearGradient id="SVGID_00000084530435173708376570000018291825722583502776_" gradientUnits="userSpaceOnUse" x1="325.7842" y1="909.373" x2="486.106" y2="1080.5365">
	<stop  offset="0" style="stop-color:#4D2FE5"/>
	<stop  offset="0.53" style="stop-color:#D51FD5"/>
	<stop  offset="1" style="stop-color:#FB767C"/>
</linearGradient>
<path style="fill:url(#SVGID_00000084530435173708376570000018291825722583502776_);" d="M438.5,1064.3c19.4-1.4,38.7-3,58.1-4.8
	c-0.4-1-0.9-2-1.3-3c-20.5-50.2-30.8-103.7-30.8-160.7v-2.3c0-0.1,0-0.3,0-0.4c-56.4,16.6-112.4,34.6-167,56.1
	c3.8,41.2,11.8,81.1,23.5,119.5C360.2,1068.9,399.5,1066.9,438.5,1064.3z"/>
<linearGradient id="SVGID_00000177459089835393315070000006065868449193572993_" gradientUnits="userSpaceOnUse" x1="643.0603" y1="721.7586" x2="1277.0216" y2="1398.5906">
	<stop  offset="0" style="stop-color:#4D2FE5"/>
	<stop  offset="0.53" style="stop-color:#D51FD5"/>
	<stop  offset="1" style="stop-color:#FB767C"/>
</linearGradient>
<path style="fill:url(#SVGID_00000177459089835393315070000006065868449193572993_);" d="M1307.4,911.1
	c-9.2,220.6-191,396.7-413.9,396.7c-14.6,0-29-0.8-43.2-2.2c-49.6-2.5-96.1-12.9-139.4-31.3c-50.2-21.3-93.5-50.4-130-87.2
	c-34.6-34.9-62-75.9-82.3-122.8c-43.5,4-111.7,9.6-175.8,10.1c76.7,242.2,303.2,417.7,570.7,417.7c330.6,0,598.6-268,598.6-598.6
	c0-15.9-0.6-31.7-1.8-47.2C1430.6,871.3,1369.1,891.7,1307.4,911.1z"/>
<linearGradient id="SVGID_00000135656406411059279410000006849268452185078922_" gradientUnits="userSpaceOnUse" x1="506.8161" y1="382.8596" x2="1141.7291" y2="1060.7076">
	<stop  offset="0" style="stop-color:#4D2FE5"/>
	<stop  offset="0.53" style="stop-color:#D51FD5"/>
	<stop  offset="1" style="stop-color:#FB767C"/>
</linearGradient>
<path style="fill:url(#SVGID_00000135656406411059279410000006849268452185078922_);" d="M464.8,877.5c1.8-51,11.9-99.1,30.5-144.2
	c20.5-49.8,49-93.5,85.5-131.1c36.5-37.6,80.2-67.3,131.2-88.9c40.3-17.2,84-27.5,131.1-31.1c16.5-2,33.3-3,50.4-3
	c43.2,0,84.8,6.6,124,18.9c17.5,4.8,33.9,10.4,49.3,17c25.1,10.6,48.3,23.6,69.6,38.8c21.3,15.2,41.1,31.9,59.3,50.2l-2.7,3.2
	c31.9,33.3,58.3,72,77.7,114.5c64.6-5.5,129.4-8.7,194.1-7.6c-76.3-242.9-303.1-419-571.2-419c-330.6,0-598.6,268-598.6,598.6
	c0,14.3,0.5,28.5,1.5,42.5C350.2,914.1,411.5,893.8,464.8,877.5z"/>
<linearGradient id="SVGID_00000088110021165937455480000003567645915190357380_" gradientUnits="userSpaceOnUse" x1="1138.5457" y1="649.5767" x2="1239.6555" y2="757.5241">
	<stop  offset="0" style="stop-color:#4D2FE5"/>
	<stop  offset="0.53" style="stop-color:#D51FD5"/>
	<stop  offset="1" style="stop-color:#FB767C"/>
</linearGradient>
<path style="fill:url(#SVGID_00000088110021165937455480000003567645915190357380_);" d="M1192.9,607.1l-88.2,101.7
	c7.9,9,15.2,18.5,21.9,28.5c47.9-6.1,95.9-11.6,144-15.7C1251.1,679,1224.8,640.4,1192.9,607.1z"/>
<linearGradient id="SVGID_00000139980810214803673670000008181890356602821541_" gradientUnits="userSpaceOnUse" x1="1133.0459" y1="738.0168" x2="1301.913" y2="918.3032">
	<stop  offset="0" style="stop-color:#4D2FE5"/>
	<stop  offset="0.53" style="stop-color:#D51FD5"/>
	<stop  offset="1" style="stop-color:#FB767C"/>
</linearGradient>
<path style="fill:url(#SVGID_00000139980810214803673670000008181890356602821541_);" d="M1286.8,906.8c7-1.9,14-3.8,21-5.8
	c0-2.5,0.1-5,0.1-7.6c0-57.5-11.7-112.3-32.9-162.1c-7.3,0.8-14.5,1.7-21.8,2.6c-39.5,5.1-78.9,10.5-118.3,16.4
	c24.9,41.9,39.2,90.8,39.2,143.1c0,14.6-1.1,28.9-3.3,42.8C1209.5,926.9,1248.2,917.1,1286.8,906.8z"/>
<linearGradient id="SVGID_00000039834950487497989200000000513600758302900370_" gradientUnits="userSpaceOnUse" x1="881.5856" y1="438.1447" x2="978.3504" y2="541.4531">
	<stop  offset="0" style="stop-color:#4D2FE5"/>
	<stop  offset="0.53" style="stop-color:#D51FD5"/>
	<stop  offset="1" style="stop-color:#FB767C"/>
</linearGradient>
<path style="fill:url(#SVGID_00000039834950487497989200000000513600758302900370_);" d="M880.8,480.8c37.3,0,71.3,3,102.1,9.1
	c12,2.4,23.5,5.1,34.6,8.1c-39.1-12.3-80.8-18.9-124-18.9c-17.1,0-33.9,1-50.4,3C855.4,481.3,868,480.8,880.8,480.8z"/>
<linearGradient id="SVGID_00000011711965463830025120000005656669556293569983_" gradientUnits="userSpaceOnUse" x1="1036.3438" y1="1062.9502" x2="1173.0289" y2="1208.8785">
	<stop  offset="0" style="stop-color:#4D2FE5"/>
	<stop  offset="0.53" style="stop-color:#D51FD5"/>
	<stop  offset="1" style="stop-color:#FB767C"/>
</linearGradient>
<path style="fill:url(#SVGID_00000011711965463830025120000005656669556293569983_);" d="M1289.6,916.7
	c-40.3,12.2-80.8,23.5-121.4,34.1c-9.4,45.2-29.7,86.5-58,120.8l91.1,92c-20.5,22-41.8,41.8-63.9,59.3c-22.1,17.5-46.2,32.5-72.4,45
	s-54.9,22.1-86.1,28.5c-31.2,6.4-66.2,9.7-104.9,9.7c-8,0-15.9-0.2-23.7-0.6c14.2,1.5,28.6,2.2,43.2,2.2
	c222.9,0,404.7-176.1,413.9-396.7C1301.5,913,1295.5,914.9,1289.6,916.7z"/>
<linearGradient id="SVGID_00000085965951632662721320000014493380127525785771_" gradientUnits="userSpaceOnUse" x1="830.4514" y1="893.2368" x2="1058.1238" y2="1136.3051">
	<stop  offset="0" style="stop-color:#4D2FE5"/>
	<stop  offset="0.53" style="stop-color:#D51FD5"/>
	<stop  offset="1" style="stop-color:#FB767C"/>
</linearGradient>
<path style="fill:url(#SVGID_00000085965951632662721320000014493380127525785771_);" d="M691.4,1042.4c6.4,9.8,13.5,19.1,21.2,27.8
	c20.1,22.8,44.5,40.9,73,54.2c28.5,13.3,59.9,20,94.1,20c45.6,0,84.2-8.4,115.8-25.1c31.6-16.7,62.9-39.5,94.1-68.4l20.6,20.9
	c28.3-34.4,48.6-75.6,58-120.8C1011.5,991.6,851.9,1021,691.4,1042.4z"/>
<linearGradient id="SVGID_00000077311063381689939360000015109405446564952747_" gradientUnits="userSpaceOnUse" x1="752.3996" y1="723.6106" x2="1064.9233" y2="1057.2683">
	<stop  offset="0" style="stop-color:#4D2FE5"/>
	<stop  offset="0.53" style="stop-color:#D51FD5"/>
	<stop  offset="1" style="stop-color:#FB767C"/>
</linearGradient>
<path style="fill:url(#SVGID_00000077311063381689939360000015109405446564952747_);" d="M1170.8,936.3c2.1-14,3.3-28.3,3.3-42.8
	c0-52.3-14.3-101.2-39.2-143.1c-162.1,24-323.4,54.7-482.7,93.1c-2.6,15.4-3.9,31.3-3.9,47.7v2.3c0,34.2,5.7,66.5,17.1,96.9
	c6,15.9,13.2,30.8,21.5,44.6c12.5-2,25-4,37.5-6.1C874.1,1003.1,1023.1,972.4,1170.8,936.3z"/>
<linearGradient id="SVGID_00000103971464605393346680000003460767049169038760_" gradientUnits="userSpaceOnUse" x1="766.7508" y1="645.96" x2="988.1384" y2="882.3185">
	<stop  offset="0" style="stop-color:#4D2FE5"/>
	<stop  offset="0.53" style="stop-color:#D51FD5"/>
	<stop  offset="1" style="stop-color:#FB767C"/>
</linearGradient>
<path style="fill:url(#SVGID_00000103971464605393346680000003460767049169038760_);" d="M1083.8,732.8
	c-31.2-28.1-62.9-50.2-95.2-66.1c-32.3-16-68.6-24-108.9-24c-33.5,0-64.4,6.5-93,19.4s-53,30.8-73.6,53.6
	c-20.5,22.8-36.5,49.2-47.9,79.2c-3.8,9.9-6.9,20.1-9.4,30.5c133.7-32.8,268.9-59.2,405.1-79.4c21.8-3,43.7-5.9,65.7-8.7
	c-6.7-10-14-19.5-21.9-28.5L1083.8,732.8z"/>
</svg>
